<?xml version="1.0" standalone="no"?>
<!DOCTYPE svg PUBLIC "-//W3C//DTD SVG 20010904//EN"
 "http://www.w3.org/TR/2001/REC-SVG-20010904/DTD/svg10.dtd">
<svg version="1.0" xmlns="http://www.w3.org/2000/svg"
 width="146.000000pt" height="146.000000pt" viewBox="0 0 146.000000 146.000000"
 preserveAspectRatio="xMidYMid meet">
<metadata>
Created by potrace 1.14, written by Peter Selinger 2001-2017
</metadata>
<g transform="translate(0.000000,146.000000) scale(0.100000,-0.100000)"
fill="#000000" stroke="none">
<path d="M5 733 l0 -708 148 -3 147 -3 0 711 0 710 -148 0 -147 0 0 -707z"/>
<path d="M1009 1087 c-55 -16 -126 -56 -158 -91 -30 -32 -38 -33 -38 -3 -1 12
-1 37 -2 55 l-1 32 -134 0 -133 0 -1 -530 0 -531 141 3 142 3 0 371 c0 330 2
373 17 396 43 65 158 96 242 64 83 -32 81 -20 84 -453 l3 -383 142 0 143 0 -2
397 c-1 378 -3 401 -23 465 -46 143 -133 208 -288 214 -53 2 -106 -1 -134 -9z"/>
</g>
</svg>
